<?xml version="1.0" encoding="UTF-8" standalone="no"?>
<svg
   xmlns:dc="http://purl.org/dc/elements/1.1/"
   xmlns:cc="http://creativecommons.org/ns#"
   xmlns:rdf="http://www.w3.org/1999/02/22-rdf-syntax-ns#"
   xmlns:svg="http://www.w3.org/2000/svg"
   xmlns="http://www.w3.org/2000/svg"
   xmlns:sodipodi="http://sodipodi.sourceforge.net/DTD/sodipodi-0.dtd"
   xmlns:inkscape="http://www.inkscape.org/namespaces/inkscape"
   version="1.1"
   id="Layer_2"
   x="0px"
   y="0px"
   viewBox="0 0 134 38"
   style="enable-background:new 0 0 134 38;"
   xml:space="preserve"
   sodipodi:docname="logo.svg"
   inkscape:version="1.0.2 (e86c870879, 2021-01-15, custom)"><metadata
   id="metadata57"><rdf:RDF><cc:Work
       rdf:about=""><dc:format>image/svg+xml</dc:format><dc:type
         rdf:resource="http://purl.org/dc/dcmitype/StillImage" /></cc:Work></rdf:RDF></metadata><defs
   id="defs55" /><sodipodi:namedview
   pagecolor="#ffffff"
   bordercolor="#666666"
   borderopacity="1"
   objecttolerance="10"
   gridtolerance="10"
   guidetolerance="10"
   inkscape:pageopacity="0"
   inkscape:pageshadow="2"
   inkscape:window-width="1366"
   inkscape:window-height="705"
   id="namedview53"
   showgrid="false"
   inkscape:zoom="4.1343284"
   inkscape:cx="80.383559"
   inkscape:cy="18.869864"
   inkscape:window-x="-8"
   inkscape:window-y="-8"
   inkscape:window-maximized="1"
   inkscape:current-layer="Layer_2" />
<style
   type="text/css"
   id="style2">
	.st0{fill:#14BF98;}
	.st1{fill:#FFFFFF;}
</style>
<title
   id="title4">logo</title>
<polygon
   class="st0"
   points="5.7,15.7 1.9,15.7 0,19 1.9,22.3 5.7,22.3 7.7,19 "
   id="polygon6" />
<polygon
   class="st0"
   points="10.3,7.8 6.5,7.8 4.6,11.1 6.5,14.4 10.3,14.4 12.2,11.1 "
   id="polygon8" />
<polygon
   class="st0"
   points="14.8,0 11,0 9.1,3.3 11,6.6 14.8,6.6 16.7,3.3 "
   id="polygon10" />
<polygon
   class="st0"
   points="23.9,0 20,0 18.1,3.3 20,6.6 23.9,6.6 25.8,3.3 "
   id="polygon12" />
<polygon
   class="st0"
   points="19.1,8.6 16.2,8.6 14.7,11.1 16.2,13.6 19.1,13.6 20.6,11.1 "
   id="polygon14" />
<polygon
   class="st0"
   points="28.2,8.6 25.2,8.6 23.8,11.1 25.2,13.6 28.2,13.6 29.6,11.1 "
   id="polygon16" />
<polygon
   class="st0"
   points="18.8,25.7 16.5,25.7 15.4,27.7 16.5,29.7 18.8,29.7 19.9,27.7 "
   id="polygon18" />
<polygon
   class="st0"
   points="27.9,25.7 25.6,25.7 24.4,27.7 25.6,29.7 27.9,29.7 29,27.7 "
   id="polygon20" />
<polygon
   class="st0"
   points="22.9,34.7 21,34.7 20,36.3 21,38 22.9,38 23.9,36.3 "
   id="polygon22" />
<polygon
   class="st0"
   points="32.9,0 29.1,0 27.2,3.3 29.1,6.6 32.9,6.6 34.9,3.3 "
   id="polygon24" />
<polygon
   class="st0"
   points="14.5,16.2 11.3,16.2 9.8,18.9 11.3,21.6 14.5,21.6 16,18.9 "
   id="polygon26" />
<polygon
   class="st0"
   points="32.6,16.2 29.5,16.2 27.9,18.9 29.5,21.6 32.6,21.6 34.2,18.9 "
   id="polygon28" />
<polygon
   class="st0"
   points="23.3,16.6 20.6,16.6 19.3,18.9 20.6,21.2 23.3,21.2 24.6,18.9 "
   id="polygon30" />
<polygon
   class="st0"
   points="37.4,7.8 33.6,7.8 31.7,11.1 33.6,14.4 37.4,14.4 39.3,11.1 "
   id="polygon32" />
<polygon
   class="st0"
   points="9.7,25 6.6,25 5,27.7 6.6,30.4 9.7,30.4 11.3,27.7 "
   id="polygon34" />
<polygon
   class="st0"
   points="12.4,34.9 10.6,34.9 9.7,36.5 10.6,38 12.4,38 13.3,36.5 "
   id="polygon36" />
<polygon
   class="st0"
   points="42,15.7 38.2,15.7 36.3,19 38.2,22.3 42,22.3 43.9,19 "
   id="polygon38" />
<polygon
   class="st0"
   points="37.3,25 34.2,25 32.6,27.7 34.2,30.4 37.3,30.4 38.9,27.7 "
   id="polygon40" />
<polygon
   class="st0"
   points="33.3,33.7 30.8,33.7 29.5,35.8 30.8,38 33.3,38 34.5,35.8 "
   id="polygon42" />




<text
   xml:space="preserve"
   style="font-style:normal;font-weight:normal;font-size:31.8051px;line-height:1.25;font-family:sans-serif;fill:#000000;fill-opacity:1;stroke:none;stroke-width:0.795129"
   x="46.547714"
   y="29.330265"
   id="text63"><tspan
     sodipodi:role="line"
     id="tspan61"
     x="46.547714"
     y="29.330265"
     style="font-style:normal;font-variant:normal;font-weight:normal;font-stretch:normal;font-family:'Liberation Serif';-inkscape-font-specification:'Liberation Serif';fill:#ffffff;stroke-width:0.795129">WebQ</tspan></text></svg>
